<svg xmlns="http://www.w3.org/2000/svg" width="448.7" height="149.03" viewBox="0 0 448.7 149.03"><title>DCR LOGO TAGLINE</title><path d="M71.32.8h-39a7.93,7.93,0,1,0,0,15.86l.41,0H71.32a16.62,16.62,0,0,1,16.6,16.6v0c0,.07,0,.13,0,.19A16.62,16.62,0,0,1,71.32,49.84H32.25a7.92,7.92,0,0,0-7.9,7.46c0,.16,0,.31,0,.46a7.93,7.93,0,0,0,7.93,7.93H71.32a32.47,32.47,0,0,0,32.43-32.22v-.22A32.47,32.47,0,0,0,71.32.8Z" style="fill:#de0c1e"/><path d="M64.89,74.15l.24,0Z" style="fill:#de0c1e"/><path d="M97.05,102,78.93,84.67l-8-7.61h0a9.91,9.91,0,0,0-5.8-2.88c.14,0-.13.11-.13.11l-.19-.08,0,0H32.43a16.62,16.62,0,0,1-16.6-16.6c0-.07,0-.14,0-.22A16.61,16.61,0,0,1,32.43,41H71.5a7.93,7.93,0,0,0,7.91-7.46,1.85,1.85,0,0,1,0-.23c0-.07,0-.15,0-.23A7.93,7.93,0,0,0,71.5,25.1l-.24,0H32.43A32.3,32.3,0,0,0,11,33.26l-.26.23A32.37,32.37,0,0,0,0,57.33a1.7,1.7,0,0,0,0,.22A32.47,32.47,0,0,0,32.43,90H59a10.44,10.44,0,0,1,6.25,3.07c.15.15,0,0,.15.15l21,20.07A7.76,7.76,0,1,0,97.05,102Z" style="fill:#de0c1e"/><path d="M65.15,74.17h0Z" style="fill:#de0c1e"/><path d="M65,74.28s.27-.09.13-.11h0l-.24,0,0,0Z" style="fill:#de0c1e"/><path d="M136.05.77h23.64c15.52.08,27.1,9.27,27.1,26.34,0,16.91-11.58,26.18-27.1,26.18H136.05Zm13,11.28V42h10c8.49,0,14.29-5.33,14.29-14.9,0-9.73-5.8-15.06-14.29-15.06Z" style="fill:#1d1d1b"/><path d="M221.86,42.09a22.78,22.78,0,0,0,14.44-5.17l5.95,9.34a30.24,30.24,0,0,1-20.77,7.8c-15.84,0-27.73-11.66-27.73-27S205.64,0,221.48,0a30.24,30.24,0,0,1,20.77,7.8l-5.95,9.35A22.73,22.73,0,0,0,221.86,12C213,12,207.11,18.69,207.11,27S213,42.09,221.86,42.09Z" style="fill:#1d1d1b"/><path d="M251.44.77h24.95c12.2,0,20.23,5.56,20.23,17.38,0,7.8-5.17,13.67-12.43,15.76l15.29,16.91v2.47H285.66l-16-18.61h-5.25V53.29h-13Zm13,11.28V25h11.74c4.25,0,7-2.62,7-6.48,0-4-2.77-6.49-7-6.49Z" style="fill:#1d1d1b"/><path d="M136.05,63.27h23.87c10,0,18.69,5.95,18.69,18.77,0,11.59-8.65,18.46-18.69,18.46H144.09v15.29h-8Zm8,7V93.47h14.59c6.41,0,11.59-4.32,11.59-11.43,0-7.8-5.18-11.74-11.59-11.74Z" style="fill:#878787"/><path d="M183.79,77.48a41.14,41.14,0,0,1,14.75-2.77c11.5,0,16.29,6.71,16.29,15.36v25.72h-8v-4.4a18.13,18.13,0,0,1-12.9,5.17c-8.65,0-13.74-4.71-13.74-12.12,0-9.65,7.8-14.29,19-14.29a37.89,37.89,0,0,1,7.65.77v-.46c0-6-2.93-8.88-8.88-8.88a31.1,31.1,0,0,0-12.67,2.86Zm12.58,32.67a15.72,15.72,0,0,0,10.43-4.09V96.72a26.07,26.07,0,0,0-6-.7c-7.11,0-12.59,2.32-12.59,7.57C188.19,108,191.43,110.15,196.37,110.15Z" style="fill:#878787"/><path d="M223.56,75.4h8v7.95c2.48-5.17,6-8.64,11.59-8.64a13.49,13.49,0,0,1,8.57,2.93l-3.17,6.64a11.79,11.79,0,0,0-6.64-2.16c-5.25,0-8.8,4.17-10.35,9.19v24.48h-8Z" style="fill:#878787"/><path d="M268.43,65.13V75.4h15.76v6.33H268.43v20.08c0,5.25,2.32,7.73,6.49,7.73a16.89,16.89,0,0,0,9-3.09l2.63,6.25a26.62,26.62,0,0,1-14,3.86c-7.49,0-12.13-4.55-12.13-13.2V81.73h-4V75.4h4l.93-10.27Z" style="fill:#878787"/><path d="M300.1,75.4v6.26c3-4.25,7.95-7,14.44-7,11,0,15.76,7.79,15.76,17.84v23.24h-8v-22c0-6.87-3.17-11.66-10.27-11.66a12.37,12.37,0,0,0-11.9,8.73v24.94h-8V75.4Z" style="fill:#878787"/><path d="M376.64,111.39a26.27,26.27,0,0,1-16.76,5.48c-15.21,0-21.86-9.42-21.86-21.16s8.19-21.39,21.17-21.39c12.28,0,18,7.57,18,16.84a30,30,0,0,1-.85,7.1h-30c.77,7,5,11.82,13.82,11.82a22.65,22.65,0,0,0,13.36-4.48Zm-7.18-21.55c0-4.63-3.17-8.8-10.43-8.8-7.57,0-12,5.09-12.59,11H369.3A18.09,18.09,0,0,0,369.46,89.84Z" style="fill:#878787"/><path d="M385.37,75.4h8v7.95c2.47-5.17,6-8.64,11.59-8.64a13.49,13.49,0,0,1,8.57,2.93l-3.17,6.64a11.79,11.79,0,0,0-6.64-2.16c-5.25,0-8.8,4.17-10.35,9.19v24.48h-8Z" style="fill:#878787"/><path d="M445.15,84.59a30.34,30.34,0,0,0-12.67-3.09c-5,0-7.88,1.78-7.88,5.25,0,2.78,1.63,3.4,5.87,4.48l6.65,1.62c8.18,1.94,11.58,5.56,11.58,11.28,0,7.49-6.56,12.43-16.76,12.43a34.31,34.31,0,0,1-15.29-3.47l1.54-7a29.45,29.45,0,0,0,13.44,3.7c5.33,0,9-1.85,9-5.17,0-2.47-2.39-3.86-6.49-4.87l-6.33-1.54c-7.72-1.85-11.12-4.87-11.12-10.89,0-7.57,5.79-12.66,16.45-12.66a37.78,37.78,0,0,1,14.21,2.93Z" style="fill:#878787"/><path d="M136.06,148.59V134.05h5.41c4.56,0,7.61,3,7.61,7.26s-3.05,7.28-7.59,7.28Zm10.4-7.28a4.69,4.69,0,0,0-5-5h-2.88v10h2.86A4.78,4.78,0,0,0,146.46,141.31Z" style="fill:#1d1d1b"/><path d="M154.59,148.59V134.05h2.55v14.54Z" style="fill:#1d1d1b"/><path d="M162.66,141.33a7.31,7.31,0,0,1,7.63-7.52,6.78,6.78,0,0,1,5.84,3l-2.07,1.2a4.69,4.69,0,0,0-3.77-1.94,5.26,5.26,0,0,0,0,10.51,5.26,5.26,0,0,0,3.45-1.31V143h-4.36v-2.24h6.89v5.43a7.88,7.88,0,0,1-6,2.66A7.34,7.34,0,0,1,162.66,141.33Z" style="fill:#1d1d1b"/><path d="M182,148.59V134.05h2.55v14.54Z" style="fill:#1d1d1b"/><path d="M194.14,148.59V136.3h-4.41v-2.25h11.36v2.25h-4.4v12.29Z" style="fill:#1d1d1b"/><path d="M215.09,148.59,214,145.78h-6.67l-1.07,2.81h-2.9l5.71-14.54h3.19L218,148.59Zm-4.4-12-2.62,6.94h5.23Z" style="fill:#1d1d1b"/><path d="M222.43,148.59V134.05H225v12.3h6.41v2.24Z" style="fill:#1d1d1b"/><path d="M245.13,149V133.61h2.16V149Z" style="fill:#de0c1e"/><path d="M261.24,141.33a7.32,7.32,0,0,1,7.63-7.52,6.51,6.51,0,0,1,5.82,3.25l-2.16,1.13a4.29,4.29,0,0,0-3.66-2.11,5.26,5.26,0,0,0,0,10.51,4.34,4.34,0,0,0,3.66-2.12l2.18,1.09a6.63,6.63,0,0,1-5.84,3.3A7.34,7.34,0,0,1,261.24,141.33Z" style="fill:#1d1d1b"/><path d="M289.91,148.59v-6.36h-7.57v6.36h-2.55V134.05h2.55V140h7.57v-5.93h2.55v14.54Z" style="fill:#1d1d1b"/><path d="M308.81,148.59l-1.07-2.81h-6.67L300,148.59h-2.9l5.71-14.54H306l5.71,14.54Zm-4.41-12-2.61,6.94H307Z" style="fill:#1d1d1b"/><path d="M326.46,148.59l-7.58-10.4v10.4h-2.55V134.05h2.61l7.44,10.07V134.05h2.55v14.54Z" style="fill:#1d1d1b"/><path d="M334.44,141.33a7.31,7.31,0,0,1,7.63-7.52,6.81,6.81,0,0,1,5.85,3l-2.08,1.2a4.67,4.67,0,0,0-3.77-1.94,5.26,5.26,0,0,0,0,10.51,5.26,5.26,0,0,0,3.45-1.31V143h-4.36v-2.24h6.89v5.43a7.88,7.88,0,0,1-6,2.66A7.34,7.34,0,0,1,334.44,141.33Z" style="fill:#1d1d1b"/><path d="M353.75,148.59V134.05h10v2.25h-7.41v3.75h7.26v2.24h-7.26v4.06h7.41v2.24Z" style="fill:#1d1d1b"/><path d="M377.82,149V133.61H380V149Z" style="fill:#de0c1e"/><path d="M402.87,148.59l-3.2-5.42h-2.55v5.42h-2.56V134.05H401a4.42,4.42,0,0,1,4.78,4.56,4.09,4.09,0,0,1-3.47,4.27l3.58,5.71Zm.24-10a2.27,2.27,0,0,0-2.48-2.29h-3.51v4.62h3.51A2.3,2.3,0,0,0,403.11,138.59Z" style="fill:#1d1d1b"/><path d="M411.33,148.59V134.05h2.55v14.54Z" style="fill:#1d1d1b"/><path d="M419.09,146.54l1.44-2a6.24,6.24,0,0,0,4.6,2c2.09,0,2.9-1,2.9-2,0-3.05-8.46-1.15-8.46-6.5,0-2.42,2.09-4.27,5.3-4.27a7.53,7.53,0,0,1,5.43,2.05l-1.44,1.9a5.93,5.93,0,0,0-4.23-1.68c-1.49,0-2.45.74-2.45,1.81,0,2.72,8.46,1,8.46,6.45,0,2.42-1.72,4.52-5.62,4.52A7.93,7.93,0,0,1,419.09,146.54Z" style="fill:#1d1d1b"/><path d="M444.73,148.59l-4.87-6.14-1.28,1.5v4.64H436V134.05h2.55V141l5.69-6.91h3.16l-5.91,6.85,6.37,7.69Z" style="fill:#1d1d1b"/></svg>